<svg xmlns="http://www.w3.org/2000/svg" viewBox="0 0 100.71 112.82"><defs><style>.cls-1{fill:#86c3d0;}.cls-2{fill:#fff;}.cls-3{font-size:12px;fill:#1d1d1b;font-family:MyriadPro-Regular, Myriad Pro;}.cls-4{letter-spacing:-0.04em;}.cls-5{letter-spacing:-0.01em;}.cls-6{letter-spacing:-0.01em;}.cls-7{letter-spacing:0em;}.cls-8{letter-spacing:0em;}.cls-9{letter-spacing:-0.02em;}.cls-10{letter-spacing:-0.01em;}.cls-11{letter-spacing:0.01em;}</style></defs><g id="API"><path class="cls-1" d="M50.35,13.37a43,43,0,1,0,43.05,43A43,43,0,0,0,50.35,13.37Z"/><circle class="cls-2" cx="65.59" cy="70.92" r="2.12"/><path class="cls-2" d="M52.48,36.43a2.13,2.13,0,1,1-2.13-2.13A2.12,2.12,0,0,1,52.48,36.43Z"/><circle class="cls-2" cx="33.93" cy="69.66" r="2.12"/><path class="cls-2" d="M34.06,70.52a.87.87,0,0,1-.69-.33A21.29,21.29,0,0,1,28.88,57,21.58,21.58,0,0,1,41.2,37.6a.87.87,0,0,1,.74,1.57A19.85,19.85,0,0,0,30.61,57a19.54,19.54,0,0,0,4.13,12.08.87.87,0,0,1-.15,1.22A.89.89,0,0,1,34.06,70.52Z"/><path class="cls-2" d="M50.35,78.51a21.39,21.39,0,0,1-11.41-3.28.86.86,0,1,1,.92-1.46A19.78,19.78,0,0,0,65,70.34a.86.86,0,0,1,1.22-.06.88.88,0,0,1,.06,1.23A21.56,21.56,0,0,1,50.35,78.51Z"/><path class="cls-2" d="M69.76,64.87a.79.79,0,0,1-.3-.05.87.87,0,0,1-.52-1.11A19.75,19.75,0,0,0,50.35,37.29a.87.87,0,0,1,0-1.73A21.49,21.49,0,0,1,70.57,64.3.86.86,0,0,1,69.76,64.87Z"/></g><g id="HOSTING"><text class="cls-3" transform="translate(-90.38 -4.98)">XML<tspan class="cls-4" x="22.16" y="0"> </tspan><tspan class="cls-5" x="24.22" y="0">T</tspan><tspan x="30.1" y="0">h</tspan><tspan class="cls-6" x="36.76" y="0">r</tspan><tspan class="cls-7" x="40.56" y="0">e</tspan><tspan class="cls-8" x="46.57" y="0">a</tspan><tspan x="52.31" y="0">t </tspan><tspan class="cls-9" x="58.82" y="0">P</tspan><tspan class="cls-6" x="65.02" y="0">r</tspan><tspan x="68.82" y="0">o</tspan><tspan class="cls-10" x="75.41" y="0">t</tspan><tspan class="cls-7" x="79.31" y="0">e</tspan><tspan class="cls-11" x="85.32" y="0">c</tspan><tspan x="90.85" y="0">tion</tspan></text></g></svg>